<?xml version="1.0" encoding="UTF-8"?>
<!DOCTYPE svg PUBLIC "-//W3C//DTD SVG 1.1//EN" "http://www.w3.org/Graphics/SVG/1.1/DTD/svg11.dtd">
<!-- Creator: CorelDRAW -->
<svg xmlns="http://www.w3.org/2000/svg" xml:space="preserve" width="38.1mm" height="33.8666mm" style="shape-rendering:geometricPrecision; text-rendering:geometricPrecision; image-rendering:optimizeQuality; fill-rule:evenodd; clip-rule:evenodd"
viewBox="0 0 38.1 33.8666"
 xmlns:xlink="http://www.w3.org/1999/xlink">
 <defs>
  <style type="text/css">
   <![CDATA[
    .str0 {stroke:#9D9E9E;stroke-width:0.75;stroke-dasharray:1.500000 0.750000}
    .fil0 {fill:none}
   ]]>
  </style>
 </defs>
 <g id="Capa_x0020_1">
  <metadata id="CorelCorpID_0Corel-Layer"/>
  <path class="fil0 str0" d="M25.4976 13.8169c2.0189,3.4969 0.8208,7.9684 -2.6761,9.9873 -3.497,2.019 -7.9685,0.8208 -9.9874,-2.6761 -2.019,-3.4969 -0.8208,-7.9684 2.6761,-9.9874 3.4969,-2.0189 7.9684,-0.8208 9.9874,2.6762zm-5.3174 7.1445l-2.2716 -1.3114 -2.2716 -1.3115c-0.318,-0.1836 -0.5,-0.4989 -0.4999,-0.8661 0,-0.3671 0.182,-0.6824 0.4999,-0.866l2.2716 -1.3114 2.2716 -1.3115c0.318,-0.1836 0.682,-0.1836 1,0 0.318,0.1836 0.5,0.4988 0.5,0.866l0 2.623 0 2.6229c0,0.3672 -0.182,0.6824 -0.4999,0.8661 -0.3181,0.1836 -0.6821,0.1835 -1.0001,-0.0001z"/>
 </g>
</svg>
