<?xml version="1.0" encoding="UTF-8"?>
<!DOCTYPE svg PUBLIC "-//W3C//DTD SVG 1.1//EN" "http://www.w3.org/Graphics/SVG/1.1/DTD/svg11.dtd">
<!-- Creator: CorelDRAW -->
<svg xmlns="http://www.w3.org/2000/svg" xml:space="preserve" width="15.3711mm" height="15.3711mm" style="shape-rendering:geometricPrecision; text-rendering:geometricPrecision; image-rendering:optimizeQuality; fill-rule:evenodd; clip-rule:evenodd"
viewBox="0 0 0.863911 0.863911"
 xmlns:xlink="http://www.w3.org/1999/xlink">
 <defs>
  <style type="text/css">
   <![CDATA[
    .str0 {stroke:#2B2A29;stroke-width:0.0421527}
    .fil0 {fill:#7FBA31}
   ]]>
  </style>
 </defs>
 <g id="Capa_x0020_1">
  <metadata id="CorelCorpID_0Corel-Layer"/>
  <path class="fil0 str0" d="M0.787823 0.226501c0.113469,0.196538 0.0461319,0.447853 -0.150406,0.561322 -0.196544,0.113475 -0.447858,0.0461319 -0.561328,-0.150406 -0.113469,-0.196538 -0.0461319,-0.447853 0.150406,-0.561328 0.196538,-0.113469 0.447853,-0.0461319 0.561328,0.150412zm-0.298857 0.401547l-0.127672 -0.0737054 -0.127672 -0.073711c-0.0178727,-0.010319 -0.0281018,-0.02804 -0.0280962,-0.0486779 0,-0.0206323 0.0102291,-0.0383533 0.0280962,-0.0486723l0.127672 -0.0737054 0.127672 -0.073711c0.0178727,-0.010319 0.0383309,-0.010319 0.0562036,0 0.0178727,0.010319 0.0281018,0.0280344 0.0281018,0.0486723l0 0.147422 0 0.147416c0,0.020638 -0.0102291,0.0383533 -0.0280962,0.0486779 -0.0178784,0.010319 -0.0383365,0.0103134 -0.0562092,-5.62036e-006z"/>
 </g>
</svg>
